<svg width="910" height="20" viewBox="0 0 910 20" fill="none" xmlns="http://www.w3.org/2000/svg">
<g clip-path="url(#clip0_135_123)">
<path d="M16.8666 10.2C17.8048 9.2618 18.3319 7.98932 18.3319 6.6625C18.3319 5.33568 17.8048 4.0632 16.8666 3.125C15.9284 2.1868 14.6559 1.65972 13.3291 1.65972C12.0023 1.65972 10.7298 2.1868 9.79163 3.125L4.16663 8.75V15.8333H11.25L16.8666 10.2Z" stroke="#2E2E2E" stroke-width="1.5" stroke-linecap="round" stroke-linejoin="round"/>
<path d="M13.3333 6.66667L1.66663 18.3333" stroke="#2E2E2E" stroke-width="1.5" stroke-linecap="round" stroke-linejoin="round"/>
<path d="M14.5833 12.5H7.5" stroke="#2E2E2E" stroke-width="1.5" stroke-linecap="round" stroke-linejoin="round"/>
</g>
<path d="M34.8855 14.12C33.9015 14.12 33.0895 13.996 32.4495 13.748C31.8175 13.492 31.3455 13.144 31.0335 12.704C30.7295 12.264 30.5735 11.76 30.5655 11.192H33.0855C33.0935 11.448 33.1655 11.672 33.3015 11.864C33.4455 12.056 33.6575 12.204 33.9375 12.308C34.2175 12.412 34.5655 12.464 34.9815 12.464C35.5175 12.464 35.9215 12.384 36.1935 12.224C36.4655 12.064 36.6015 11.836 36.6015 11.54C36.6015 11.364 36.5695 11.22 36.5055 11.108C36.4415 10.996 36.3295 10.908 36.1695 10.844C36.0175 10.78 35.8135 10.728 35.5575 10.688C35.3095 10.648 34.9975 10.608 34.6215 10.568C33.9735 10.488 33.4095 10.388 32.9295 10.268C32.4495 10.14 32.0495 9.976 31.7295 9.776C31.4175 9.576 31.1815 9.324 31.0215 9.02C30.8615 8.716 30.7815 8.352 30.7815 7.928C30.7815 7.328 30.9455 6.824 31.2735 6.416C31.6015 6 32.0695 5.684 32.6775 5.468C33.2855 5.252 34.0095 5.144 34.8495 5.144C35.6175 5.144 36.2855 5.248 36.8535 5.456C37.4295 5.656 37.8815 5.956 38.2095 6.356C38.5455 6.748 38.7375 7.232 38.7855 7.808H36.3375C36.3135 7.56 36.2295 7.364 36.0855 7.22C35.9495 7.068 35.7655 6.956 35.5335 6.884C35.3095 6.812 35.0495 6.776 34.7535 6.776C34.4415 6.776 34.1735 6.812 33.9495 6.884C33.7255 6.948 33.5535 7.048 33.4335 7.184C33.3215 7.312 33.2655 7.464 33.2655 7.64C33.2655 7.856 33.3215 8.02 33.4335 8.132C33.5455 8.244 33.7455 8.332 34.0335 8.396C34.3295 8.452 34.7415 8.508 35.2695 8.564C35.9335 8.644 36.5055 8.744 36.9855 8.864C37.4735 8.976 37.8735 9.136 38.1855 9.344C38.4975 9.552 38.7255 9.82 38.8695 10.148C39.0215 10.468 39.0975 10.868 39.0975 11.348C39.0975 11.924 38.9335 12.42 38.6055 12.836C38.2855 13.252 37.8135 13.572 37.1895 13.796C36.5655 14.012 35.7975 14.12 34.8855 14.12ZM44.9418 14.12C44.1498 14.12 43.4418 14.016 42.8178 13.808C42.1938 13.592 41.6658 13.284 41.2338 12.884C40.8098 12.484 40.4858 12.012 40.2618 11.468C40.0378 10.916 39.9258 10.3 39.9258 9.62C39.9258 8.94 40.0338 8.324 40.2498 7.772C40.4738 7.22 40.8018 6.748 41.2338 6.356C41.6658 5.964 42.1938 5.664 42.8178 5.456C43.4418 5.24 44.1498 5.132 44.9418 5.132C45.8538 5.132 46.6418 5.268 47.3058 5.54C47.9698 5.804 48.4978 6.172 48.8898 6.644C49.2898 7.116 49.5298 7.672 49.6098 8.312H47.1738C47.1098 8.056 46.9698 7.832 46.7538 7.64C46.5378 7.448 46.2738 7.3 45.9618 7.196C45.6578 7.092 45.3178 7.04 44.9418 7.04C44.4298 7.04 43.9778 7.136 43.5858 7.328C43.1938 7.512 42.8898 7.796 42.6738 8.18C42.4658 8.556 42.3618 9.036 42.3618 9.62C42.3618 10.06 42.4218 10.44 42.5418 10.76C42.6698 11.08 42.8458 11.348 43.0698 11.564C43.2938 11.78 43.5618 11.94 43.8738 12.044C44.1938 12.148 44.5538 12.2 44.9538 12.2C45.3218 12.2 45.6618 12.148 45.9738 12.044C46.2938 11.94 46.5618 11.792 46.7778 11.6C46.9938 11.408 47.1338 11.184 47.1978 10.928H49.6098C49.5378 11.568 49.2898 12.128 48.8658 12.608C48.4418 13.088 47.8898 13.46 47.2098 13.724C46.5378 13.988 45.7818 14.12 44.9418 14.12ZM50.8751 14V5.252H56.1191C56.5911 5.252 57.0351 5.296 57.4511 5.384C57.8671 5.472 58.2311 5.62 58.5431 5.828C58.8551 6.028 59.0991 6.3 59.2751 6.644C59.4591 6.98 59.5511 7.396 59.5511 7.892C59.5511 8.404 59.4111 8.856 59.1311 9.248C58.8511 9.64 58.4551 9.9 57.9431 10.028V10.112C58.4071 10.192 58.7511 10.372 58.9751 10.652C59.2071 10.932 59.3231 11.324 59.3231 11.828V12.944C59.3231 13.112 59.3271 13.284 59.3351 13.46C59.3511 13.636 59.3991 13.816 59.4791 14H57.0431C56.9951 13.888 56.9591 13.748 56.9351 13.58C56.9111 13.412 56.8991 13.204 56.8991 12.956V12.152C56.8991 11.92 56.8631 11.724 56.7911 11.564C56.7271 11.404 56.6071 11.28 56.4311 11.192C56.2551 11.104 56.0031 11.06 55.6751 11.06H53.2991V14H50.8751ZM53.2991 9.332H55.6391C56.1991 9.332 56.5791 9.224 56.7791 9.008C56.9871 8.792 57.0911 8.508 57.0911 8.156C57.0911 7.876 57.0311 7.66 56.9111 7.508C56.7911 7.348 56.6191 7.236 56.3951 7.172C56.1791 7.108 55.9271 7.076 55.6391 7.076H53.2991V9.332ZM60.7728 14V5.252H63.1968V14H60.7728ZM64.8579 14V5.252H69.9459C70.6659 5.252 71.2459 5.34 71.6859 5.516C72.1259 5.692 72.4459 5.948 72.6459 6.284C72.8459 6.62 72.9459 7.028 72.9459 7.508C72.9459 7.828 72.8859 8.12 72.7659 8.384C72.6539 8.648 72.4899 8.868 72.2739 9.044C72.0659 9.22 71.8139 9.336 71.5179 9.392V9.488C71.8779 9.552 72.1819 9.672 72.4299 9.848C72.6859 10.024 72.8779 10.256 73.0059 10.544C73.1419 10.832 73.2099 11.164 73.2099 11.54C73.2099 12.092 73.0779 12.548 72.8139 12.908C72.5499 13.268 72.1619 13.54 71.6499 13.724C71.1459 13.908 70.5339 14 69.8139 14H64.8579ZM67.2699 12.344H69.3819C69.9099 12.344 70.2739 12.248 70.4739 12.056C70.6819 11.864 70.7859 11.62 70.7859 11.324C70.7859 10.98 70.6699 10.728 70.4379 10.568C70.2139 10.408 69.8739 10.328 69.4179 10.328H67.2699V12.344ZM67.2699 8.732H69.3219C69.6259 8.732 69.8659 8.696 70.0419 8.624C70.2259 8.544 70.3579 8.436 70.4379 8.3C70.5179 8.156 70.5579 7.988 70.5579 7.796C70.5579 7.476 70.4379 7.252 70.1979 7.124C69.9659 6.988 69.6619 6.92 69.2859 6.92H67.2699V8.732ZM74.3923 14V5.252H81.9283V7.16H76.3123L76.8163 6.644V9.2L76.3243 8.708H81.3283V10.484H76.3243L76.8163 9.992V12.596L76.3123 12.092H81.9643V14H74.3923ZM89.7028 14.12C88.8308 14.12 88.1108 14.008 87.5428 13.784C86.9828 13.552 86.5588 13.224 86.2708 12.8C85.9828 12.376 85.8228 11.868 85.7908 11.276H88.1308C88.1468 11.532 88.2188 11.744 88.3468 11.912C88.4828 12.072 88.6668 12.192 88.8988 12.272C89.1308 12.352 89.4028 12.392 89.7148 12.392C90.0748 12.392 90.3748 12.352 90.6148 12.272C90.8548 12.184 91.0348 12.06 91.1548 11.9C91.2748 11.732 91.3348 11.536 91.3348 11.312C91.3348 11.152 91.3028 11.012 91.2388 10.892C91.1748 10.772 91.0788 10.672 90.9508 10.592C90.8308 10.512 90.6788 10.452 90.4948 10.412C90.3108 10.372 90.0908 10.352 89.8348 10.352H88.6348V8.84H89.7988C90.1108 8.84 90.3668 8.8 90.5668 8.72C90.7668 8.64 90.9148 8.532 91.0108 8.396C91.1148 8.252 91.1668 8.084 91.1668 7.892C91.1668 7.684 91.1068 7.512 90.9868 7.376C90.8748 7.24 90.7108 7.14 90.4948 7.076C90.2868 7.004 90.0348 6.968 89.7388 6.968C89.4428 6.968 89.1868 7.008 88.9708 7.088C88.7548 7.16 88.5828 7.276 88.4548 7.436C88.3268 7.596 88.2468 7.804 88.2148 8.06H85.9348C85.9668 7.42 86.1468 6.892 86.4748 6.476C86.8108 6.06 87.2628 5.752 87.8308 5.552C88.3988 5.344 89.0668 5.24 89.8348 5.24C90.4108 5.24 90.9268 5.292 91.3828 5.396C91.8468 5.5 92.2388 5.652 92.5588 5.852C92.8788 6.052 93.1228 6.3 93.2908 6.596C93.4588 6.892 93.5428 7.228 93.5428 7.604C93.5428 7.908 93.4788 8.188 93.3508 8.444C93.2228 8.7 93.0388 8.92 92.7988 9.104C92.5588 9.28 92.2668 9.408 91.9228 9.488V9.56C92.2828 9.6 92.5948 9.708 92.8588 9.884C93.1228 10.06 93.3308 10.288 93.4828 10.568C93.6348 10.848 93.7108 11.172 93.7108 11.54C93.7108 12.052 93.5548 12.504 93.2428 12.896C92.9388 13.28 92.4868 13.58 91.8868 13.796C91.2948 14.012 90.5668 14.12 89.7028 14.12ZM94.7747 14V12.212H97.0427V14H94.7747ZM102.692 14.108C102.02 14.108 101.404 14.012 100.844 13.82C100.292 13.62 99.8164 13.332 99.4164 12.956C99.0164 12.572 98.7084 12.108 98.4924 11.564C98.2844 11.012 98.1804 10.38 98.1804 9.668C98.1804 8.964 98.2884 8.34 98.5044 7.796C98.7204 7.244 99.0244 6.78 99.4164 6.404C99.8164 6.028 100.292 5.744 100.844 5.552C101.404 5.352 102.024 5.252 102.704 5.252C103.384 5.252 104 5.352 104.552 5.552C105.112 5.744 105.592 6.028 105.992 6.404C106.392 6.78 106.696 7.244 106.904 7.796C107.12 8.34 107.228 8.968 107.228 9.68C107.228 10.384 107.12 11.012 106.904 11.564C106.688 12.116 106.38 12.58 105.98 12.956C105.588 13.332 105.112 13.62 104.552 13.82C104 14.012 103.38 14.108 102.692 14.108ZM102.704 12.224C103.024 12.224 103.316 12.176 103.58 12.08C103.852 11.984 104.084 11.836 104.276 11.636C104.468 11.428 104.612 11.164 104.708 10.844C104.812 10.524 104.864 10.136 104.864 9.68C104.864 9.224 104.812 8.836 104.708 8.516C104.612 8.196 104.468 7.936 104.276 7.736C104.084 7.528 103.852 7.376 103.58 7.28C103.316 7.184 103.024 7.136 102.704 7.136C102.376 7.136 102.076 7.184 101.804 7.28C101.54 7.376 101.316 7.528 101.132 7.736C100.948 7.936 100.804 8.196 100.7 8.516C100.596 8.836 100.544 9.224 100.544 9.68C100.544 10.136 100.592 10.524 100.688 10.844C100.792 11.164 100.94 11.428 101.132 11.636C101.324 11.836 101.548 11.984 101.804 12.08C102.068 12.176 102.368 12.224 102.704 12.224Z" fill="#2E2E2E"/>
<defs>
<clipPath id="clip0_135_123">
<rect width="20" height="20" fill="black"/>
</clipPath>
</defs>
</svg>
