<svg viewBox="0 0 20 21" fill="none" xmlns="http://www.w3.org/2000/svg">
<path d="M1.66666 13.8334V3.83335C1.66666 3.39133 1.84225 2.9674 2.15481 2.65484C2.46737 2.34228 2.8913 2.16669 3.33332 2.16669H12.5"  stroke-width="1.5" stroke-linecap="round" stroke-linejoin="round"/>
<path d="M4.16666 12.1667H3.33332C2.8913 12.1667 2.46737 12.3423 2.15481 12.6548C1.84225 12.9674 1.66666 13.3913 1.66666 13.8334C1.66666 14.2754 1.84225 14.6993 2.15481 15.0119C2.46737 15.3244 2.8913 15.5 3.33332 15.5H4.16666"  stroke-width="1.5" stroke-linecap="round" stroke-linejoin="round"/>
<path d="M18.3333 15.5H9.16667C8.72464 15.5 8.30072 15.6756 7.98816 15.9882C7.6756 16.3007 7.5 16.7246 7.5 17.1667M7.5 17.1667C7.5 17.6087 7.6756 18.0326 7.98816 18.3452C8.30072 18.6577 8.72464 18.8333 9.16667 18.8333H18.3333V5.5H9.16667C8.72464 5.5 8.30072 5.67559 7.98816 5.98816C7.6756 6.30072 7.5 6.72464 7.5 7.16667V17.1667Z"  stroke-width="1.5" stroke-linecap="round" stroke-linejoin="round"/>
</svg>
