<svg viewBox="0 0 24 25" fill="none" xmlns="http://www.w3.org/2000/svg">
<path d="M16 16.5H22"  stroke-width="2" stroke-linecap="round" stroke-linejoin="round"/>
<path d="M19 13.5V19.5"  stroke-width="2" stroke-linecap="round" stroke-linejoin="round"/>
<path d="M21 10.5V8.50002C20.9996 8.1493 20.9071 7.80483 20.7315 7.50119C20.556 7.19754 20.3037 6.94539 20 6.77002L13 2.77002C12.696 2.59449 12.3511 2.50208 12 2.50208C11.6489 2.50208 11.304 2.59449 11 2.77002L4 6.77002C3.69626 6.94539 3.44398 7.19754 3.26846 7.50119C3.09294 7.80483 3.00036 8.1493 3 8.50002V16.5C3.00036 16.8508 3.09294 17.1952 3.26846 17.4989C3.44398 17.8025 3.69626 18.0547 4 18.23L11 22.23C11.304 22.4056 11.6489 22.498 12 22.498C12.3511 22.498 12.696 22.4056 13 22.23L15 21.09"  stroke-width="2" stroke-linecap="round" stroke-linejoin="round"/>
<path d="M7.5 4.77002L16.5 9.92002"  stroke-width="2" stroke-linecap="round" stroke-linejoin="round"/>
<path d="M3.28998 7.5L12 12.5L20.71 7.5"  stroke-width="2" stroke-linecap="round" stroke-linejoin="round"/>
<path d="M12 22.5V12.5"  stroke-width="2" stroke-linecap="round" stroke-linejoin="round"/>
</svg>
